<?xml version="1.0" encoding="UTF-8" standalone="no"?>
<svg width="20px" height="20px" viewBox="0 0 20 20" version="1.1" xmlns="http://www.w3.org/2000/svg" xmlns:xlink="http://www.w3.org/1999/xlink" xmlns:sketch="http://www.bohemiancoding.com/sketch/ns">
    <!-- Generator: Sketch 3.3.3 (12081) - http://www.bohemiancoding.com/sketch -->
    <title>Shape</title>
    <desc>Created with Sketch.</desc>
    <defs></defs>
    <g id="home" stroke="none" stroke-width="1" fill="none" fill-rule="evenodd" sketch:type="MSPage">
        <g id="tickets" sketch:type="MSArtboardGroup" transform="translate(-459.000000, -602.000000)" fill="#F9001C">
            <g id="table" sketch:type="MSLayerGroup" transform="translate(410.000000, 121.000000)">
                <g id="wow-ok" transform="translate(0.000000, 394.000000)" sketch:type="MSShapeGroup">
                    <g id="alarm" transform="translate(49.000000, 87.000000)">
                        <path d="M10.0001257,0 C4.4759043,0 0,4.4759043 0,9.99987427 C0,15.5230899 4.4759043,19.9997485 10.0001257,19.9997485 C15.5233413,19.9997485 20,15.5230899 20,9.99987427 C19.9997485,4.4759043 15.5230899,0 10.0001257,0 Z M14.3743448,7.17670186 L11.4952644,10.0557823 L14.560092,13.1113226 L13.0369655,14.5694375 L10.0092874,11.5417593 L6.96303448,14.5880122 L5.43990805,13.1298973 L8.51402299,10.0557823 L5.62565517,7.15812715 L7.1302069,5.70001221 L10,8.56980531 L12.8512184,5.71858692 L14.3743448,7.17670186 Z" id="Shape"></path>
                    </g>
                </g>
            </g>
        </g>
    </g>
</svg>